<svg width="56" height="56" viewBox="0 0 56 56" fill="none" xmlns="http://www.w3.org/2000/svg">
<path d="M0 14C0 6.26801 6.26801 0 14 0H42C49.732 0 56 6.26801 56 14V42C56 49.732 49.732 56 42 56H14C6.26801 56 0 49.732 0 42V14Z" fill="url(#paint0_linear_1_6797)"/>
<path d="M17.3332 30.6667C17.0809 30.6675 16.8335 30.5968 16.6198 30.4626C16.4061 30.3285 16.2349 30.1365 16.126 29.9089C16.0171 29.6813 15.975 29.4274 16.0046 29.1769C16.0342 28.9263 16.1343 28.6893 16.2932 28.4933L29.4932 14.8933C29.5923 14.779 29.7272 14.7018 29.8759 14.6743C30.0246 14.6468 30.1782 14.6707 30.3115 14.742C30.4449 14.8133 30.55 14.9278 30.6097 15.0668C30.6694 15.2057 30.68 15.3608 30.6399 15.5067L28.0799 23.5333C28.0044 23.7353 27.9791 23.9527 28.006 24.1667C28.033 24.3806 28.1115 24.5849 28.2347 24.7619C28.3579 24.9389 28.5223 25.0833 28.7136 25.1829C28.9049 25.2824 29.1176 25.334 29.3332 25.3333H38.6666C38.9189 25.3325 39.1663 25.4032 39.38 25.5373C39.5937 25.6715 39.7649 25.8635 39.8738 26.0911C39.9828 26.3187 40.0249 26.5725 39.9952 26.8231C39.9656 27.0737 39.8655 27.3107 39.7066 27.5067L26.5066 41.1066C26.4076 41.2209 26.2726 41.2982 26.1239 41.3257C25.9752 41.3532 25.8216 41.3293 25.6883 41.258C25.5549 41.1867 25.4498 41.0721 25.3901 40.9332C25.3305 40.7942 25.3198 40.6391 25.3599 40.4933L27.9199 32.4667C27.9954 32.2646 28.0207 32.0473 27.9938 31.8333C27.9668 31.6193 27.8884 31.4151 27.7651 31.2381C27.6419 31.0611 27.4775 30.9166 27.2862 30.8171C27.0949 30.7176 26.8822 30.6659 26.6666 30.6667H17.3332Z" stroke="#0A0A0F" stroke-width="2.66667" stroke-linecap="round" stroke-linejoin="round"/>
<defs>
<linearGradient id="paint0_linear_1_6797" x1="28" y1="0" x2="28" y2="56" gradientUnits="userSpaceOnUse">
<stop stop-color="#00FF88"/>
<stop offset="1" stop-color="#00D4FF"/>
</linearGradient>
</defs>
</svg>
